<mxfile host="app.diagrams.net" modified="2021-12-18T10:33:02.768Z" agent="5.0 (Windows NT 10.0; WOW64) AppleWebKit/537.36 (KHTML, like Gecko) Chrome/86.0.4240.198 Safari/537.36" etag="iYtUwvDu1vM33uYIGfoh" version="16.0.0" type="github">
  <diagram id="AsMbpsUywDKeFJIfIFC2" name="Page-1">
    <mxGraphModel dx="858" dy="386" grid="1" gridSize="10" guides="1" tooltips="1" connect="1" arrows="1" fold="1" page="1" pageScale="1" pageWidth="827" pageHeight="1169" background="#F1FAEE" math="0" shadow="0">
      <root>
        <mxCell id="0" />
        <mxCell id="1" parent="0" />
        <mxCell id="nOgPp2-_NSEICwkSvMVM-3" value="" style="edgeStyle=orthogonalEdgeStyle;rounded=0;orthogonalLoop=1;jettySize=auto;html=1;labelBackgroundColor=#F1FAEE;strokeColor=#457B9D;fontColor=#1D3557;sketch=1;" edge="1" parent="1" source="nOgPp2-_NSEICwkSvMVM-1" target="nOgPp2-_NSEICwkSvMVM-2">
          <mxGeometry relative="1" as="geometry" />
        </mxCell>
        <mxCell id="nOgPp2-_NSEICwkSvMVM-1" value="这个工具不错" style="rounded=1;whiteSpace=wrap;html=1;fillColor=#A8DADC;strokeColor=#457B9D;fontColor=#1D3557;sketch=1;" vertex="1" parent="1">
          <mxGeometry x="250" y="130" width="120" height="60" as="geometry" />
        </mxCell>
        <mxCell id="nOgPp2-_NSEICwkSvMVM-5" value="" style="edgeStyle=orthogonalEdgeStyle;rounded=0;orthogonalLoop=1;jettySize=auto;html=1;labelBackgroundColor=#F1FAEE;strokeColor=#457B9D;fontColor=#1D3557;sketch=1;" edge="1" parent="1" source="nOgPp2-_NSEICwkSvMVM-2" target="nOgPp2-_NSEICwkSvMVM-4">
          <mxGeometry relative="1" as="geometry" />
        </mxCell>
        <mxCell id="nOgPp2-_NSEICwkSvMVM-2" value="这个工具不错" style="rounded=1;whiteSpace=wrap;html=1;fillColor=#A8DADC;strokeColor=#457B9D;fontColor=#1D3557;sketch=1;" vertex="1" parent="1">
          <mxGeometry x="450" y="130" width="120" height="60" as="geometry" />
        </mxCell>
        <mxCell id="nOgPp2-_NSEICwkSvMVM-7" value="" style="edgeStyle=orthogonalEdgeStyle;rounded=0;orthogonalLoop=1;jettySize=auto;html=1;labelBackgroundColor=#F1FAEE;strokeColor=#457B9D;fontColor=#1D3557;sketch=1;" edge="1" parent="1" source="nOgPp2-_NSEICwkSvMVM-4" target="nOgPp2-_NSEICwkSvMVM-6">
          <mxGeometry relative="1" as="geometry" />
        </mxCell>
        <mxCell id="nOgPp2-_NSEICwkSvMVM-4" value="" style="ellipse;whiteSpace=wrap;html=1;rounded=1;fillColor=#A8DADC;strokeColor=#457B9D;fontColor=#1D3557;sketch=1;" vertex="1" parent="1">
          <mxGeometry x="450" y="270" width="120" height="60" as="geometry" />
        </mxCell>
        <mxCell id="nOgPp2-_NSEICwkSvMVM-6" value="" style="shape=process;whiteSpace=wrap;html=1;backgroundOutline=1;rounded=1;fillColor=#A8DADC;strokeColor=#457B9D;fontColor=#1D3557;sketch=1;" vertex="1" parent="1">
          <mxGeometry x="250" y="270" width="120" height="60" as="geometry" />
        </mxCell>
        <mxCell id="nOgPp2-_NSEICwkSvMVM-8" value="Entity" style="swimlane;childLayout=stackLayout;horizontal=1;startSize=30;horizontalStack=0;rounded=1;fontSize=14;fontStyle=0;strokeWidth=2;resizeParent=0;resizeLast=1;shadow=0;dashed=0;align=center;sketch=1;fontColor=#1D3557;fillColor=#A8DADC;" vertex="1" parent="1">
          <mxGeometry x="60" y="320" width="160" height="120" as="geometry" />
        </mxCell>
        <mxCell id="nOgPp2-_NSEICwkSvMVM-9" value="+Attribute1&#xa;+Attribute2&#xa;+Attribute3" style="align=left;strokeColor=none;fillColor=none;spacingLeft=4;fontSize=12;verticalAlign=top;resizable=0;rotatable=0;part=1;rounded=0;sketch=1;fontColor=#1D3557;" vertex="1" parent="nOgPp2-_NSEICwkSvMVM-8">
          <mxGeometry y="30" width="160" height="90" as="geometry" />
        </mxCell>
        <mxCell id="nOgPp2-_NSEICwkSvMVM-10" value="&amp;laquo;interface&amp;raquo;&lt;br&gt;&lt;b&gt;Name&lt;/b&gt;" style="html=1;rounded=0;sketch=1;fontColor=#1D3557;strokeColor=#457B9D;fillColor=#A8DADC;" vertex="1" parent="1">
          <mxGeometry x="360" y="420" width="110" height="50" as="geometry" />
        </mxCell>
      </root>
    </mxGraphModel>
  </diagram>
</mxfile>
